# xmcd
# 
# Track frame offsets:
#     150
#     23050
#     43408
#     64282
#     84957
#     104825
#     124125
#     142768
#     163392
#     187392
#     208265
#     229171
# 
# Disc length: 3301
# 
# Revision: 2
# Processed by: cddbd v1.5.2PL0 Copyright (c) Steve Scherf et al.
# Submitted via: fre:ac v1.0.27
# 
DISCID=b90ce30c
DTITLE=Eddie Turner - The Turner Diaries
DYEAR=2006
DGENRE=Blues
TTITLE0=Dangerous
TTITLE1=So Many Roads
TTITLE2=Cost Of Freedom
TTITLE3=I'm A Man, I'm A Man
TTITLE4=Save My Life
TTITLE5=Confessions
TTITLE6=New Day
TTITLE7=Shake 4 Me
TTITLE8=Pomade
TTITLE9=Jody
TTITLE10=The Turner Diaries
TTITLE11=I'm Tore Down
EXTD=
EXTT0=
EXTT1=
EXTT2=
EXTT3=
EXTT4=
EXTT5=
EXTT6=
EXTT7=
EXTT8=
EXTT9=
EXTT10=
EXTT11=
PLAYORDER=
